# xmcd CD database file
#
# Track frame offsets:
#	150
#	12845
#	24350
#	36737
#	48504
#	58618
#	68831
#	79413
#	93868
#	116714
#	127694
#	138541
#	152586
#	164820
#	177666
#	191036
#	202413
#	212924
#	224616
#
# Disc length: 3142 seconds
#
# Revision: 0
# Processed by: cddbd v1.4PL0 Copyright (c) Steve Scherf et al.
# Submitted via: CDex 1.50Beta7
#
DISCID=280c4413
DTITLE=Mel Tormé - That old Black Magic
DYEAR=1900
DGENRE=Jazz
TTITLE0=All of you
TTITLE1=My Rosemarie
TTITLE2=The anything can happen mambo
TTITLE3=Blue moon
TTITLE4=You're driving me crazy
TTITLE5=Blue skies
TTITLE6=Rose O'Day
TTITLE7=That old black magic
TTITLE8=Country fair
TTITLE9=The hut-sut song
TTITLE10=Cement mixer
TTITLE11=Skylark
TTITLE12=I love each move you make
TTITLE13=I've got a feeling I'm falling
TTITLE14=Bernie's tune
TTITLE15=Goody goody
TTITLE16=Mountain greenery
TTITLE17=Hold tight
TTITLE18=Spellbound
EXTD=
EXTT0=
EXTT1=
EXTT2=
EXTT3=
EXTT4=
EXTT5=
EXTT6=
EXTT7=
EXTT8=
EXTT9=
EXTT10=
EXTT11=
EXTT12=
EXTT13=
EXTT14=
EXTT15=
EXTT16=
EXTT17=
EXTT18=
PLAYORDER=
